<?xml version="1.0" standalone="no"?>
<!DOCTYPE svg PUBLIC "-//W3C//DTD SVG 20010904//EN"
 "http://www.w3.org/TR/2001/REC-SVG-20010904/DTD/svg10.dtd">
<svg version="1.0" xmlns="http://www.w3.org/2000/svg"
 width="500.000000pt" height="500.000000pt" viewBox="0 0 500.000000 500.000000"
 preserveAspectRatio="xMidYMid meet">
<metadata>
Created by potrace 1.14, written by Peter Selinger 2001-2017
</metadata>
<g transform="translate(0.000000,500.000000) scale(0.100000,-0.100000)"
fill="#000000" stroke="none">
<path d="M3020 3910 c-19 -19 -20 -33 -20 -530 l0 -509 -40 -32 c-51 -41 -119
-129 -163 -209 -56 -102 -78 -189 -84 -321 -7 -149 11 -238 77 -376 40 -81 65
-117 130 -186 l80 -85 0 -154 c0 -179 4 -191 65 -186 l40 3 3 137 3 136 62
-28 c201 -91 470 -78 667 32 180 100 314 271 370 470 24 84 29 278 10 363 -60
270 -269 493 -534 569 -73 22 -109 26 -210 26 -132 0 -210 -14 -301 -55 -32
-14 -59 -25 -61 -25 -2 0 -4 216 -4 480 0 464 -1 480 -19 490 -29 15 -49 12
-71 -10z m603 -1056 c207 -53 378 -225 432 -434 23 -89 16 -260 -15 -347 -102
-289 -412 -457 -708 -383 -53 13 -116 37 -154 59 l-63 37 -3 485 -2 485 52 31
c62 37 95 51 163 69 71 18 225 17 298 -2z m-623 -580 c0 -409 2 -402 -64 -271
-65 129 -82 272 -47 409 22 84 89 228 107 228 2 0 4 -165 4 -366z"/>
<path d="M1455 3316 c-172 -47 -303 -122 -421 -240 -124 -125 -206 -269 -245
-433 -27 -112 -30 -314 -5 -415 82 -347 328 -599 677 -695 91 -25 357 -25 449
0 78 22 231 93 297 138 169 115 307 315 365 526 31 112 31 344 0 456 -60 217
-197 412 -377 534 -83 55 -131 79 -238 115 -85 28 -105 31 -252 35 -145 3
-168 1 -250 -21z m439 -195 c247 -86 420 -265 485 -501 27 -95 29 -281 5 -374
-64 -249 -256 -445 -510 -523 -72 -22 -303 -25 -374 -4 -266 76 -457 273 -526
542 -25 99 -16 301 19 397 94 261 301 435 577 486 62 12 266 -3 324 -23z"/>
</g>
</svg>
